<?xml version="1.0" encoding="UTF-8"?>
<svg id="Layer_2" data-name="Layer 2" xmlns="http://www.w3.org/2000/svg" viewBox="0 0 465.94 465.94">
  <defs>
    <style>
      .cls-1 {
        fill: #fff;
      }
    </style>
  </defs>
  <g id="Layer_9" data-name="Layer 9">
    <path class="cls-1" d="M449.49,147.17C402.11,27.59,266.75-30.94,147.17,16.44,27.58,63.83-30.95,199.19,16.44,318.77c47.39,119.58,182.74,178.11,302.33,130.73,119.58-47.39,178.11-182.75,130.72-302.33ZM434.73,233.07c.54,144.53-150.01,242.45-281.35,185.36-68.87-29.1-117.59-97.66-121.76-172.49C22.88,123.73,128.82,20.28,250.91,32c103.23,9.02,183.88,96.05,183.82,200.87v.2Z"/>
    <path class="cls-1" d="M434.69,228.97h31.14l-.21-6.84h-31.17c.12,2.27.2,4.55.24,6.84ZM434.48,243.86h31.14l.21-6.84h-31.13c-.03,2.3-.1,4.58-.22,6.84ZM413.77,143.34l27.02-15.6c-1.03-2.04-2.09-4.06-3.18-6.07l-27,15.59c1.08,2,2.13,4.03,3.16,6.08ZM410.71,328.78l26.88,15.52c1.09-2,2.15-4.01,3.18-6.05l-26.89-15.52c-1.02,2.04-2.08,4.06-3.17,6.05ZM433.64,114.68c-1.16-1.97-2.35-3.91-3.57-5.84l-27.02,15.6c1.23,1.92,2.43,3.86,3.6,5.82l26.99-15.58ZM403.09,341.58l26.95,15.56,3.58-5.84-26.91-15.53c-1.17,1.96-2.38,3.9-3.62,5.81ZM340.12,61.99c1.94,1.22,3.86,2.47,5.75,3.75l15.61-27.04-5.77-3.7-15.59,26.99ZM339.93,403.66l15.76,27.3c1.94-1.21,3.87-2.44,5.77-3.7l-15.79-27.34c-1.89,1.28-3.81,2.52-5.74,3.74ZM348.8,30.87l-5.98-3.32-15.58,26.99c2.02,1.07,4.01,2.17,5.99,3.31l15.57-26.98ZM327.03,411.1l15.77,27.31c2.01-1.08,4.01-2.19,5.98-3.32l-15.76-27.29c-1.98,1.13-3.97,2.24-5.99,3.3ZM240.77,465.75c2.29-.07,4.58-.18,6.85-.32v-31.08c-2.28.18-4.56.32-6.85.41v30.99ZM240.77,31.29c2.27.1,4.56.24,6.85.43V.52c-2.27-.14-4.56-.25-6.85-.32v31.09ZM225.88,465.77c2.27.07,4.55.11,6.84.11v-30.93c-2.28,0-4.56-.03-6.84-.11v30.93ZM225.88,31.19c2.28-.07,4.55-.1,6.84-.1V.07c-2.29,0-4.57.04-6.84.11v31.01ZM122.86,27.69l15.63,27.06c2.01-1.08,4.04-2.12,6.09-3.13l-15.63-27.08c-2.05,1.02-4.08,2.07-6.09,3.15ZM122.89,438.27c2,1.08,4.03,2.13,6.07,3.15l15.59-27c-2.06-.98-4.09-2.01-6.11-3.09l-15.55,26.94ZM131.47,58.71l-15.63-27.08-5.86,3.53,15.66,27.12c1.92-1.23,3.86-2.42,5.83-3.57ZM125.55,403.87l-15.55,26.93c1.93,1.21,3.89,2.39,5.86,3.53l15.53-26.91c-1.97-1.15-3.92-2.33-5.84-3.55ZM34.25,111.44l27.08,15.64c1.21-1.94,2.45-3.86,3.73-5.76l-27.15-15.67-3.66,5.79ZM34.27,354.54c1.19,1.95,2.42,3.88,3.67,5.79l27.11-15.65c-1.27-1.9-2.51-3.82-3.71-5.77l-27.07,15.63ZM53.96,325.99l-27.06,15.62,3.29,6,27.05-15.62c-1.14-1.98-2.23-3.98-3.28-6ZM57.21,133.98l-27.04-15.61-3.29,6,27.04,15.61c1.06-2.02,2.16-4.02,3.29-6ZM31.19,237.02H.1c.03,2.29.11,4.57.21,6.84h31.18c-.15-2.29-.25-4.57-.3-6.84ZM31.35,222.13H.31l-.21,6.84h31.04c.02-2.29.1-4.57.21-6.84Z"/>
    <path class="cls-1" d="M403.23,208.24c1.46,12.31,11.25,22.33,22.09,24.52,3.49.7,2.46.77-.31,1.41-11.16,2.42-19.69,11.72-21.36,22.96-.33,1.76-.52,1.47-.8-.01-1.67-11.16-10.1-20.44-21.21-22.91-2.37-.6-4.52-.67-.56-1.42,10.89-2.22,20.64-12.24,22.14-24.55h.02Z"/>
    <path class="cls-1" d="M58.64,208.24c1.46,12.31,11.25,22.33,22.09,24.52,3.49.7,2.46.77-.31,1.41-11.16,2.42-19.69,11.72-21.36,22.96-.33,1.76-.52,1.47-.8-.01-1.67-11.16-10.1-20.44-21.21-22.91-2.37-.6-4.52-.67-.56-1.42,10.89-2.22,20.64-12.24,22.14-24.55h.02Z"/>
    <g>
      <path class="cls-1" d="M244.56,81.78s-16.25-2.89-15.03-7.56,15.32-2.8,19.66-1.54,10.44,2.59,12.12-4.83c1.68-7.42-1.68-9.46-11.35-11.56-35.2-9.54-63.29,29.39-19.19,39.5,0,0,14.36,2.94,13.52,7.14-.84,4.2-9.91,5.25-20.1,2.73-10.19-2.52-10.38-3.4-14.32.32-9.98,16.53,27.31,18.73,38.31,15.53,29.08-11,15.43-35.48-3.6-39.72Z"/>
      <polygon class="cls-1" points="244.91 121.86 243.49 132.51 230.08 132.51 228.66 121.86 244.91 121.86"/>
      <polygon class="cls-1" points="244.91 57.8 243.49 47.15 230.08 47.15 228.66 57.8 244.91 57.8"/>
    </g>
    <g>
      <path class="cls-1" d="M328.33,160.89c7.75-19.08,32.96-37.98,55.13-50.79,3.59-1.63-7.67-2.08-8.03-2.35-38.44-3.86-81.13,14.71-103.79,44.86-3.04,3.57,1.36-7.27-.41-8.13-43.08-3.36-84.73-5.71-117.67,29.67-.4.25-.85.88-.72.13,3.7-9.22,9.42-18.2,15.9-26.26,12.07-17.16,22.41-11.4,1.25-27.31-21.5-19.36-71.2-24.3-77.26-18.61-24.3,39.82-2.03,87.84,32.24,115.48.92.77,1.27,1.73.98,2.93-2.98,10.26-4.51,21.07-4.52,31.88.1,33.86-5.42,14.17,37.84.38,1.68-.5,2.15-.91.66-2.24-7.29-8.36-7.31-23.02-.34-31.61,15.69-13.46,23.34,18.77,15.13,28.94,56.36-6.63,98.97,33.52,84.92,92.99-1.97,6.09,17.69-5.07,20.45-5.73,43.96-20.81,66.78-60.63,69.77-100.53,2.08-4.73,6.59-10.87,8.2-13.02.2-.26.07-.64-.25-.73-24.97-7.82-40.64-33.75-29.5-59.95ZM269.98,266.34c-14.21-1.21-17.04-23.72-13.26-34.69,4.92-16.43,20.09-18.35,26.24-1.27,4.41,11.56,1.84,34.55-12.98,35.96Z"/>
      <path class="cls-1" d="M176.61,262.5c-31.6,0-57.23,21.18-57.23,47.3s25.63,47.31,57.23,47.31,57.23-21.18,57.23-47.31-25.62-47.3-57.23-47.3ZM154.7,322.72c-4.8,0-8.68-7.27-8.68-16.25s3.88-16.24,8.68-16.24,8.69,7.27,8.69,16.24-3.89,16.25-8.69,16.25ZM194.99,322.72c-4.8,0-8.69-7.27-8.69-16.25s3.89-16.24,8.69-16.24,8.68,7.27,8.68,16.24-3.89,16.25-8.68,16.25Z"/>
      <path class="cls-1" d="M312.35,353.12c-18.97,17.45-44.44,29.1-73.09,31.41-22.81,1.84-44.56-2.5-63.34-11.5,17.01,2.25,35.07,2.76,53.69,1.26,30.59-2.47,58.83-10.02,82.74-21.17Z"/>
    </g>
  </g>
</svg>