<?xml version="1.0" encoding="UTF-8"?>
<svg id="Layer_2" data-name="Layer 2" xmlns="http://www.w3.org/2000/svg" xmlns:xlink="http://www.w3.org/1999/xlink" viewBox="0 0 485.94 485.93">
  <defs>
    <style>
      .cls-1 {
        fill: #685033;
      }

      .cls-2 {
        fill: #399a9a;
      }

      .cls-3 {
        fill: url(#linear-gradient-5);
      }

      .cls-4 {
        fill: url(#linear-gradient-6);
      }

      .cls-5 {
        fill: url(#linear-gradient-4);
      }

      .cls-6 {
        fill: url(#linear-gradient-3);
      }

      .cls-7 {
        fill: url(#linear-gradient-2);
      }

      .cls-8 {
        fill: url(#linear-gradient);
      }

      .cls-9, .cls-10 {
        fill: #fff;
      }

      .cls-9, .cls-11 {
        opacity: .5;
      }

      .cls-12 {
        fill: #0b2c2c;
      }

      .cls-13 {
        fill: #d39645;
      }
    </style>
    <linearGradient id="linear-gradient" x1="-148.43" y1="-1585.26" x2="327.38" y2="-1585.26" gradientTransform="translate(-1263.76 743.77) rotate(68.38)" gradientUnits="userSpaceOnUse">
      <stop offset="0" stop-color="#fee571"/>
      <stop offset="1" stop-color="#edb14b"/>
    </linearGradient>
    <linearGradient id="linear-gradient-2" x1="-1835.23" y1="864.36" x2="-1785.12" y2="864.36" gradientTransform="translate(-451.16 -1566.89) rotate(-90)" gradientUnits="userSpaceOnUse">
      <stop offset=".42" stop-color="#fee571"/>
      <stop offset="1" stop-color="#edb14b"/>
    </linearGradient>
    <linearGradient id="linear-gradient-3" y1="519.77" y2="519.77" xlink:href="#linear-gradient-2"/>
    <linearGradient id="linear-gradient-4" x1="218.16" y1="98.77" x2="274.96" y2="98.77" gradientTransform="matrix(1,0,0,1,0,0)" xlink:href="#linear-gradient"/>
    <linearGradient id="linear-gradient-5" x1="238.66" y1="137.18" x2="254.91" y2="137.18" gradientTransform="matrix(1,0,0,1,0,0)" xlink:href="#linear-gradient"/>
    <linearGradient id="linear-gradient-6" x1="238.66" y1="62.47" x2="254.91" y2="62.47" gradientTransform="matrix(1,0,0,1,0,0)" xlink:href="#linear-gradient"/>
  </defs>
  <g id="Layer_1-2" data-name="Layer 1">
    <g>
      <path class="cls-8" d="M243.04,480.93c-47.15,0-92.88-13.88-132.25-40.14-40.3-26.88-71.08-64.98-88.99-110.19C-1.62,271.53-.62,206.87,24.6,148.54,49.82,90.22,96.25,45.2,155.33,21.79c28.12-11.14,57.59-16.79,87.57-16.79,47.15,0,92.88,13.88,132.25,40.14,40.3,26.88,71.08,64.98,88.99,110.19,23.41,59.08,22.41,123.74-2.81,182.06-25.22,58.33-71.65,103.34-130.72,126.75-28.12,11.14-57.58,16.79-87.57,16.79Z"/>
      <path class="cls-1" d="M242.9,10c92.71,0,180.36,55.74,216.59,147.17,47.39,119.58-11.14,254.94-130.73,302.32-28.15,11.16-57.19,16.44-85.73,16.44-92.71,0-180.36-55.74-216.59-147.17C-20.94,209.18,37.58,73.83,157.17,26.44c28.15-11.16,57.19-16.44,85.73-16.44M242.91,0v10V0c-30.63,0-60.72,5.77-89.43,17.15-30.48,12.08-57.69,29.77-80.87,52.58-22.38,22.03-40.08,47.88-52.6,76.83C7.49,175.51.78,206.12.06,237.51c-.74,32.51,5,64.45,17.08,94.94,18.29,46.16,49.71,85.06,90.86,112.51,40.2,26.81,86.89,40.98,135.03,40.98,30.62,0,60.71-5.77,89.42-17.15,30.48-12.08,57.69-29.77,80.87-52.58,22.38-22.03,40.08-47.88,52.6-76.83,12.52-28.95,19.23-59.55,19.95-90.95.74-32.51-5-64.45-17.08-94.94-18.29-46.15-49.71-85.06-90.86-112.5C337.73,14.17,291.05,0,242.91,0h0Z"/>
    </g>
    <path class="cls-13" d="M268.48,242.99l6.98-4.03h200.37l-.21-6.84h-188.31l163.48-94.39c-1.03-2.04-2.09-4.06-3.18-6.07l-174,100.46h-8.04l4.02-6.97h.01l174.04-100.48c-1.16-1.97-2.35-3.91-3.57-5.84l-163.64,94.48,95.05-164.62-5.77-3.7-101.13,175.16-6.96,4.02v-8.06l101.18-175.25-5.98-3.32-95.2,164.88V10.51c-2.27-.14-4.56-.25-6.85-.32v204.1l-4.02,6.96-4.03-6.98V10.06c-2.29,0-4.57.04-6.84.11v192.25L138.95,34.53c-2.05,1.02-4.08,2.07-6.09,3.15l103.02,178.44v8.05l-6.97-4.03L125.84,41.62l-5.86,3.53,97.09,168.16L47.91,115.64l-3.66,5.79,179.65,103.72,4.03,6.97h-8.04L40.17,128.36l-3.29,6,169.31,97.76H10.31l-.21,6.84h207.94l6.98,4.03-6.96,4.02H10.1c.03,2.29.11,4.57.21,6.84h195.9l-169.31,97.75,3.29,6,179.7-103.75h8.04l-4.03,6.97-179.63,103.71c1.19,1.95,2.42,3.88,3.67,5.79l169.12-97.64-97.06,168.11c1.93,1.21,3.89,2.39,5.86,3.53l103.05-178.48,6.97-4.03v8.05l-102.99,178.4c2,1.08,4.03,2.13,6.07,3.15l96.92-167.86v192.21c2.27.07,4.55.11,6.84.11v-204.17l4.03-6.98,4.02,6.96v204.06c2.29-.07,4.58-.18,6.85-.32v-191.87l95.18,164.85c2.01-1.08,4.01-2.19,5.98-3.32l-101.16-175.21v-8.06l6.96,4.02,101.11,175.12c1.94-1.21,3.87-2.44,5.77-3.7l-95.02-164.57,163.6,94.45,3.58-5.84-174.02-100.47h-.01l-4.02-6.97h8.04l173.98,100.44c1.09-2,2.15-4.01,3.18-6.05l-163.48-94.39h188.33l.21-6.84h-200.39l-6.96-4.02ZM231.9,246.96l-.02.05h-.15l.13-.07.09-.05-.05.07ZM231.95,239.09l-.08-.05.04-.03-.03-.05h.12l-.09.05.04.08ZM235.88,253.91l-.12.07.07-.13.05-.09v.15ZM235.88,232.12v-.06l.1.06h-.1ZM242.72,257.74l.05.09-.05.03v-.12ZM242.77,228.15l-.05.08v-.27l.08.14.05.1-.08-.05ZM250.77,257.86l-.04-.03.04-.07v.1ZM250.77,228.21l-.04-.06-.09.05.06-.11.07-.12v.24ZM257.62,253.91l-.1-.06h.1v-.08l.05.08.06.12-.11-.06ZM257.67,232.12l-.05.09v-.09h-.1l.1-.06.12-.07-.07.13ZM261.52,247.01l.07-.05h.01l.02.05h-.1ZM261.63,239.04l-.08.05.04-.08.03-.05h.15l-.14.08Z"/>
    <path class="cls-12" d="M444.73,243.07c.54,144.53-150,242.45-281.34,185.36-68.87-29.09-117.59-97.66-121.76-172.48-8.74-122.21,97.2-225.67,219.29-213.95,103.24,9.02,183.89,96.06,183.82,200.87v.2Z"/>
    <path class="cls-7" d="M413.23,218.23c1.46,12.31,11.25,22.33,22.09,24.52,3.49.7,2.46.77-.31,1.41-11.16,2.42-19.69,11.72-21.36,22.96-.33,1.76-.52,1.47-.8-.01-1.67-11.16-10.1-20.44-21.21-22.91-2.37-.6-4.52-.67-.56-1.42,10.89-2.22,20.64-12.24,22.14-24.55h.02Z"/>
    <path class="cls-6" d="M68.63,218.23c1.46,12.31,11.25,22.33,22.09,24.52,3.49.7,2.46.77-.31,1.41-11.16,2.42-19.69,11.72-21.36,22.96-.33,1.76-.52,1.47-.8-.01-1.67-11.16-10.1-20.44-21.21-22.91-2.37-.6-4.52-.67-.56-1.42,10.89-2.22,20.64-12.24,22.14-24.55h.02Z"/>
    <g>
      <path class="cls-5" d="M254.56,91.78s-16.25-2.89-15.03-7.56,15.32-2.8,19.66-1.54,10.44,2.59,12.12-4.83-1.68-9.46-11.35-11.56c-35.2-9.54-63.29,29.39-19.19,39.5,0,0,14.36,2.94,13.52,7.14s-9.91,5.25-20.1,2.73-10.38-3.4-14.32.32c-9.98,16.53,27.31,18.73,38.31,15.53,29.08-11,15.43-35.48-3.6-39.72Z"/>
      <polygon class="cls-3" points="254.91 131.85 253.49 142.51 240.08 142.51 238.66 131.85 254.91 131.85"/>
      <polygon class="cls-4" points="254.91 67.8 253.49 57.15 240.08 57.15 238.66 67.8 254.91 67.8"/>
    </g>
    <g>
      <path class="cls-2" d="M338.33,170.89c7.75-19.08,32.96-37.98,55.13-50.79,3.59-1.63-7.67-2.08-8.03-2.35-38.44-3.86-81.13,14.71-103.79,44.86-3.04,3.57,1.36-7.27-.41-8.13-43.08-3.36-84.73-5.71-117.67,29.67-.4.25-.85.88-.72.13,3.7-9.22,9.42-18.2,15.9-26.26,12.07-17.16,22.41-11.4,1.25-27.31-21.5-19.36-71.2-24.3-77.26-18.61-24.3,39.82-2.03,87.84,32.24,115.48.92.77,1.27,1.73.98,2.93-2.98,10.26-4.51,21.07-4.52,31.88.1,33.86-5.42,14.17,37.84.38,1.68-.5,2.15-.91.66-2.24-7.29-8.36-7.31-23.02-.34-31.61,15.69-13.46,23.34,18.77,15.13,28.94,56.36-6.63,98.97,33.52,84.92,92.99-1.97,6.09,17.69-5.07,20.45-5.73,43.96-20.81,66.78-60.63,69.77-100.53,2.08-4.73,6.59-10.87,8.2-13.02.2-.26.07-.64-.25-.73-24.97-7.82-40.64-33.75-29.5-59.95ZM279.98,276.34c-14.21-1.21-17.04-23.72-13.26-34.69,4.92-16.43,20.09-18.35,26.24-1.27,4.41,11.56,1.84,34.55-12.98,35.96Z"/>
      <path class="cls-2" d="M186.61,272.49c-31.6,0-57.23,21.18-57.23,47.3s25.63,47.31,57.23,47.31,57.23-21.18,57.23-47.31-25.62-47.3-57.23-47.3ZM164.7,332.71c-4.8,0-8.68-7.27-8.68-16.25s3.88-16.24,8.68-16.24,8.69,7.27,8.69,16.24-3.89,16.25-8.69,16.25ZM204.99,332.71c-4.8,0-8.69-7.27-8.69-16.25s3.89-16.24,8.69-16.24,8.68,7.27,8.68,16.24-3.89,16.25-8.68,16.25Z"/>
      <path class="cls-2" d="M322.35,363.11c-18.97,17.45-44.44,29.1-73.09,31.41-22.81,1.84-44.56-2.5-63.34-11.5,17.01,2.25,35.07,2.76,53.69,1.26,30.59-2.47,58.83-10.02,82.74-21.17Z"/>
    </g>
  </g>
  <g id="shadows">
    <g class="cls-11">
      <path class="cls-10" d="M371.81,117.3c-34.53,1.1-70.16,18.69-90.17,45.31-.72.85-1.03.88-1.09.43-.47,2.82-1.03,5.44.64,3.35,20.5-29.2,59.43-48.84,96.6-49.11-1.99-.05-3.98-.04-5.98.02Z"/>
    </g>
    <path class="cls-9" d="M163.56,184.15c-.4.25-.84.87-.72.13-1.68,3.65-3.14,7.34-4.32,11.05-.07.85.37.12.78-.19,28.03-35.28,64.85-41.19,104.03-41.91-36.62-2.04-71.42.47-99.77,30.92Z"/>
    <g class="cls-11">
      <path class="cls-10" d="M191.7,140.95c-1.2-2.14-4.75-5.02-11.71-10.25-21.5-19.36-71.2-24.3-77.26-18.61-22.03,36.1-5.79,78.92,22.97,107.21-17.16-27.58-22.79-60.91-4.92-90.11,5.54-5.19,45.1-2.11,70.92,11.76Z"/>
    </g>
  </g>
</svg>